<svg width="130" height="37" viewBox="0 0 130 37" fill="none" xmlns="http://www.w3.org/2000/svg">
<circle cx="18.5" cy="18.5" r="18.5" fill="#FCE1EF"/>
<rect x="8.362" y="10.138" width="3.13575" height="16.724" fill="#FC087E"/>
<rect x="16.8734" y="18.5" width="3.13575" height="5.67421" fill="#FC087E"/>
<rect x="13.4389" y="12.2285" width="3.13575" height="4.62896" fill="#FC087E"/>
<rect x="20.457" y="12.2285" width="3.13575" height="4.62896" fill="#FC087E"/>
<rect x="25.5339" y="10.138" width="3.13575" height="16.724" fill="#FC087E"/>
<path d="M44.9684 8.2276H48.6291L54.9939 23.7686H55.2282L61.5929 8.2276H65.2537V28.22H62.3837V13.7528H62.1982L56.302 28.1907H53.9201L48.0239 13.7431H47.8384V28.22H44.9684V8.2276ZM71.328 28.22H68.1261L75.3206 8.2276H78.8056L86.0002 28.22H82.7983L77.1461 11.859H76.9899L71.328 28.22ZM71.8649 20.3909H82.2516V22.929H71.8649V20.3909ZM88.3699 28.22V26.209L98.8835 10.8243H88.282V8.2276H102.573V10.2386L92.0599 25.6233H102.661V28.22H88.3699ZM119.301 8.2276H122.327V21.3769C122.327 22.7761 121.998 24.0159 121.341 25.0962C120.683 26.17 119.759 27.016 118.568 27.6343C117.377 28.246 115.981 28.5519 114.381 28.5519C112.786 28.5519 111.393 28.246 110.202 27.6343C109.011 27.016 108.087 26.17 107.43 25.0962C106.773 24.0159 106.444 22.7761 106.444 21.3769V8.2276H109.461V21.1328C109.461 22.0375 109.659 22.8412 110.056 23.544C110.459 24.2469 111.029 24.8001 111.764 25.2036C112.5 25.6006 113.372 25.799 114.381 25.799C115.396 25.799 116.271 25.6006 117.006 25.2036C117.748 24.8001 118.315 24.2469 118.705 23.544C119.102 22.8412 119.301 22.0375 119.301 21.1328V8.2276Z" fill="#FC087E"/>
</svg>
